<svg width="48" height="48" viewBox="0 0 48 48" fill="none" xmlns="http://www.w3.org/2000/svg">
<path d="M6 11.1428C6 9.72052 7.14911 8.57141 8.57143 8.57141H39.4286C40.8509 8.57141 42 9.72052 42 11.1428C42 12.5652 40.8509 13.7143 39.4286 13.7143H8.57143C7.14911 13.7143 6 12.5652 6 11.1428ZM6 24C6 22.5777 7.14911 21.4286 8.57143 21.4286H39.4286C40.8509 21.4286 42 22.5777 42 24C42 25.4223 40.8509 26.5714 39.4286 26.5714H8.57143C7.14911 26.5714 6 25.4223 6 24ZM42 36.8571C42 38.2794 40.8509 39.4286 39.4286 39.4286H8.57143C7.14911 39.4286 6 38.2794 6 36.8571C6 35.4348 7.14911 34.2857 8.57143 34.2857H39.4286C40.8509 34.2857 42 35.4348 42 36.8571Z" fill="none"/>
</svg>
