<svg width="24" height="24" viewBox="0 0 24 24" fill="none" xmlns="http://www.w3.org/2000/svg">
<path d="M17.6246 10.3114C17.6246 11.9249 17.1009 13.4153 16.2186 14.6245L20.6687 19.0781C21.1081 19.5175 21.1081 20.2311 20.6687 20.6705C20.2293 21.1098 19.5158 21.1098 19.0764 20.6705L14.6262 16.2168C13.417 17.1026 11.9266 17.6229 10.3132 17.6229C6.27434 17.6229 3.00177 14.3503 3.00177 10.3114C3.00177 6.27257 6.27434 3 10.3132 3C14.3521 3 17.6246 6.27257 17.6246 10.3114ZM10.3132 15.3732C10.9779 15.3732 11.6361 15.2423 12.2503 14.9879C12.8644 14.7335 13.4224 14.3607 13.8924 13.8906C14.3624 13.4206 14.7353 12.8626 14.9897 12.2485C15.244 11.6344 15.375 10.9761 15.375 10.3114C15.375 9.64671 15.244 8.9885 14.9897 8.37438C14.7353 7.76026 14.3624 7.20225 13.8924 6.73223C13.4224 6.2622 12.8644 5.88935 12.2503 5.63497C11.6361 5.3806 10.9779 5.24967 10.3132 5.24967C9.64848 5.24967 8.99027 5.3806 8.37615 5.63497C7.76203 5.88935 7.20402 6.2622 6.734 6.73223C6.26397 7.20225 5.89112 7.76026 5.63674 8.37438C5.38237 8.9885 5.25144 9.64671 5.25144 10.3114C5.25144 10.9761 5.38237 11.6344 5.63674 12.2485C5.89112 12.8626 6.26397 13.4206 6.734 13.8906C7.20402 14.3607 7.76203 14.7335 8.37615 14.9879C8.99027 15.2423 9.64848 15.3732 10.3132 15.3732Z" fill="none"/>
</svg>
