<svg width="93" height="32" viewBox="0 0 93 32" fill="none" xmlns="http://www.w3.org/2000/svg">
<g clip-path="url(#clip0_46_224)">
<path d="M39.2263 12.0806L37.2627 9.50143V12.0806H35.84V6.23999H37.2627V8.80255L39.2096 6.23999H40.8819L38.6189 9.10207L40.9651 12.0806H39.2263Z" fill="#3E54AC"/>
<path d="M43.064 7.37983V8.56127H44.9693V9.65951H43.064V10.9408H45.2189V12.0806H41.6413V6.23999H45.2189V7.37983H43.064Z" fill="#3E54AC"/>
<path d="M49.1211 12.0806L47.9064 9.87583H47.5652V12.0806H46.1425V6.23999H48.5304C48.9907 6.23999 49.3818 6.32042 49.7035 6.48127C50.0307 6.64212 50.2748 6.86399 50.4356 7.14687C50.5965 7.4242 50.6769 7.73482 50.6769 8.07871C50.6769 8.46698 50.566 8.81364 50.3441 9.11871C50.1278 9.42378 49.8061 9.6401 49.379 9.76767L50.7268 12.0806H49.1211ZM47.5652 8.86911H48.4472C48.7079 8.86911 48.902 8.80532 49.0296 8.67775C49.1627 8.55018 49.2292 8.36991 49.2292 8.13695C49.2292 7.91508 49.1627 7.74036 49.0296 7.61279C48.902 7.48522 48.7079 7.42143 48.4472 7.42143H47.5652V8.86911Z" fill="#3E54AC"/>
<path d="M55.2308 6.23999V10.217C55.2308 10.8326 55.0561 11.3069 54.7067 11.6397C54.3628 11.9725 53.8969 12.1389 53.3089 12.1389C52.6932 12.1389 52.1996 11.9642 51.8279 11.6147C51.4563 11.2653 51.2705 10.7688 51.2705 10.1254H52.6849C52.6849 10.3695 52.7348 10.5553 52.8347 10.6829C52.9345 10.8049 53.0787 10.8659 53.2673 10.8659C53.4393 10.8659 53.5724 10.8104 53.6667 10.6995C53.761 10.5886 53.8081 10.4277 53.8081 10.217V6.23999H55.2308Z" fill="#3E54AC"/>
<path d="M60.0159 11.049H57.836L57.4866 12.0806H55.9973L58.1106 6.23999H59.7579L61.8712 12.0806H60.3653L60.0159 11.049ZM59.6498 9.95071L58.9259 7.81247L58.2104 9.95071H59.6498Z" fill="#3E54AC"/>
<path d="M41.7578 25.5206L38.3594 21.0566V25.5206H35.897V15.4118H38.3594V19.847L41.729 15.4118H44.6234L40.7066 20.3654L44.7674 25.5206H41.7578Z" fill="#3E54AC"/>
<path d="M50.7184 25.6214C49.768 25.6214 48.8944 25.4006 48.0976 24.959C47.3104 24.5174 46.6816 23.903 46.2112 23.1158C45.7504 22.319 45.52 21.4262 45.52 20.4374C45.52 19.4486 45.7504 18.5606 46.2112 17.7734C46.6816 16.9862 47.3104 16.3718 48.0976 15.9302C48.8944 15.4886 49.768 15.2678 50.7184 15.2678C51.6688 15.2678 52.5376 15.4886 53.3248 15.9302C54.1216 16.3718 54.7456 16.9862 55.1968 17.7734C55.6576 18.5606 55.888 19.4486 55.888 20.4374C55.888 21.4262 55.6576 22.319 55.1968 23.1158C54.736 23.903 54.112 24.5174 53.3248 24.959C52.5376 25.4006 51.6688 25.6214 50.7184 25.6214ZM50.7184 23.375C51.5248 23.375 52.168 23.1062 52.648 22.5686C53.1376 22.031 53.3824 21.3206 53.3824 20.4374C53.3824 19.5446 53.1376 18.8342 52.648 18.3062C52.168 17.7686 51.5248 17.4998 50.7184 17.4998C49.9024 17.4998 49.2496 17.7638 48.76 18.2918C48.28 18.8198 48.04 19.535 48.04 20.4374C48.04 21.3302 48.28 22.0454 48.76 22.583C49.2496 23.111 49.9024 23.375 50.7184 23.375Z" fill="#3E54AC"/>
<path d="M61.0451 15.4118C62.1107 15.4118 63.0419 15.623 63.8387 16.0454C64.6355 16.4678 65.2499 17.063 65.6819 17.831C66.1235 18.5894 66.3443 19.4678 66.3443 20.4662C66.3443 21.455 66.1235 22.3334 65.6819 23.1014C65.2499 23.8694 64.6307 24.4646 63.8243 24.887C63.0275 25.3094 62.1011 25.5206 61.0451 25.5206H57.2579V15.4118H61.0451ZM60.8867 23.3894C61.8179 23.3894 62.5427 23.135 63.0611 22.6262C63.5795 22.1174 63.8387 21.3974 63.8387 20.4662C63.8387 19.535 63.5795 18.8102 63.0611 18.2918C62.5427 17.7734 61.8179 17.5142 60.8867 17.5142H59.7203V23.3894H60.8867Z" fill="#3E54AC"/>
<path d="M70.1828 15.4118V25.5206H67.7204V15.4118H70.1828Z" fill="#3E54AC"/>
<path d="M81.0105 25.5206H78.5481L74.4297 19.2854V25.5206H71.9673V15.4118H74.4297L78.5481 21.6758V15.4118H81.0105V25.5206Z" fill="#3E54AC"/>
<path d="M89.5058 18.6086C89.3234 18.2726 89.0594 18.0182 88.7138 17.8454C88.3778 17.663 87.9794 17.5718 87.5186 17.5718C86.7218 17.5718 86.0834 17.8358 85.6034 18.3638C85.1234 18.8822 84.8834 19.5782 84.8834 20.4518C84.8834 21.383 85.133 22.1126 85.6322 22.6406C86.141 23.159 86.837 23.4182 87.7202 23.4182C88.325 23.4182 88.8338 23.2646 89.2466 22.9574C89.669 22.6502 89.9762 22.2086 90.1682 21.6326H87.0434V19.8182H92.4002V22.1078C92.2178 22.7222 91.9058 23.2934 91.4642 23.8214C91.0322 24.3494 90.4802 24.7766 89.8082 25.103C89.1362 25.4294 88.3778 25.5926 87.533 25.5926C86.5346 25.5926 85.6418 25.3766 84.8546 24.9446C84.077 24.503 83.4674 23.8934 83.0258 23.1158C82.5938 22.3382 82.3778 21.4502 82.3778 20.4518C82.3778 19.4534 82.5938 18.5654 83.0258 17.7878C83.4674 17.0006 84.077 16.391 84.8546 15.959C85.6322 15.5174 86.5202 15.2966 87.5186 15.2966C88.7282 15.2966 89.7458 15.5894 90.5714 16.175C91.4066 16.7606 91.9586 17.5718 92.2274 18.6086H89.5058Z" fill="#3E54AC"/>
<path d="M21.5177 25.3373C22.2335 25.4108 22.8262 24.8217 22.8262 24.1021V23.8351C22.8262 23.3135 22.4162 22.9016 21.9169 22.7506C21.6544 22.6631 21.5231 22.4537 21.5231 22.1225V18.6069C21.5231 18.0006 21.4262 17.5225 21.2325 17.1725C21.045 16.8162 20.795 16.5506 20.4825 16.3756C20.2563 16.2444 20.2544 15.7252 20.4825 15.5975C20.795 15.4162 21.045 15.1506 21.2325 14.8006C21.4262 14.4444 21.5231 13.9662 21.5231 13.3662V9.85062C21.5231 9.51937 21.6544 9.31312 21.9169 9.23187C22.4139 9.07004 22.8262 8.65876 22.8262 8.136V7.871C22.8262 7.15146 22.2335 6.5623 21.5177 6.63582C20.9332 6.69585 20.4413 6.78933 20.0419 6.91625C19.3731 7.1225 18.9012 7.4725 18.6262 7.96625C18.3575 8.45375 18.2231 9.135 18.2231 10.01V13.1506C18.2231 13.7756 18.1481 14.235 17.9981 14.5287C17.9503 14.6244 17.8787 14.7079 17.7832 14.7793C17.3636 15.0931 16.92 15.4576 16.92 15.9816C16.92 16.5098 17.3741 16.8727 17.7917 17.1962C17.8829 17.2669 17.9517 17.3496 17.9981 17.4444C18.1481 17.7381 18.2231 18.1975 18.2231 18.8225V21.9631C18.2231 22.8319 18.3575 23.5131 18.6262 24.0069C18.9012 24.5006 19.3731 24.8506 20.0419 25.0569C20.4413 25.1838 20.9332 25.2773 21.5177 25.3373Z" fill="#3E54AC"/>
<path d="M9.57516 21.689C9.34242 22.6921 10.104 23.6506 11.1338 23.6506H11.2526C11.9966 23.6506 12.6424 23.1378 12.811 22.4131L15.9198 9.04748C16.1531 8.04419 15.3915 7.085 14.3614 7.085H14.235C13.4907 7.085 12.8447 7.59829 12.6764 8.32336L9.57516 21.689Z" fill="#3E54AC"/>
<path fill-rule="evenodd" clip-rule="evenodd" d="M32 16C32 24.8366 24.8366 32 16 32C7.16344 32 0 24.8366 0 16C0 7.16344 7.16344 0 16 0C24.8366 0 32 7.16344 32 16ZM29.6 16C29.6 23.5111 23.5111 29.6 16 29.6C8.48893 29.6 2.4 23.5111 2.4 16C2.4 8.48893 8.48893 2.4 16 2.4C23.5111 2.4 29.6 8.48893 29.6 16Z" fill="#3E54AC"/>
</g>
<defs>
<clipPath id="clip0_46_224">
<rect width="92.48" height="32" fill="white"/>
</clipPath>
</defs>
</svg>
