<svg preserveAspectRatio="none" width="100" height="100" viewBox="0 0 100 100" fill="none" xmlns="http://www.w3.org/2000/svg">
<path d="M17.0475 20.5982C15.8287 19.6373 14.0592 19.8599 13.0983 21.0786C12.1374 22.2974 12.36 24.0669 13.5788 25.0278L82.9525 79.4018C84.1713 80.3628 85.9408 80.1401 86.9017 78.9214C87.8626 77.7026 87.64 75.9331 86.4212 74.9722L74.0933 65.3161C78.7339 60.5584 81.8744 55.2265 83.4564 51.4414C83.8432 50.5156 83.8432 49.4844 83.4564 48.5586C81.7104 44.3751 78.0425 38.2815 72.5582 33.1956C67.0505 28.0629 59.4686 23.7505 50 23.7505C42.008 23.7505 35.3518 26.8324 30.1605 30.8753L17.0475 20.5982ZM38.6447 37.5198C41.633 34.7893 45.629 33.1253 50 33.1253C59.3162 33.1253 66.8747 40.6838 66.8747 50C66.8747 52.9179 66.1364 55.6601 64.8357 58.0507L60.3123 54.5116C61.2967 52.25 61.5545 49.6602 60.8748 47.0938C59.574 42.2306 55.2733 38.9611 50.4922 38.7619C49.8125 38.7385 49.4141 39.4768 49.625 40.133C49.8711 40.883 50.0117 41.6798 50.0117 42.5119C50.0117 43.7072 49.7305 44.8321 49.2383 45.8282L38.6564 37.5315L38.6447 37.5198ZM56.2108 65.6911C54.289 66.4528 52.1914 66.8747 50 66.8747C40.6838 66.8747 33.1253 59.3163 33.1253 50C33.1253 49.1914 33.1839 48.4063 33.2894 47.6329L22.2388 38.926C19.5669 42.4064 17.6568 45.8751 16.5436 48.5586C16.1568 49.4844 16.1568 50.5156 16.5436 51.4414C18.2896 55.6249 21.9575 61.7186 27.4418 66.8044C32.9495 71.9371 40.5314 76.2495 50 76.2495C55.6015 76.2495 60.535 74.7379 64.7888 72.441L56.2108 65.6911Z" fill="none"/>
</svg>
