<svg width="100" height="100" viewBox="0 0 100 100" fill="none" xmlns="http://www.w3.org/2000/svg">
<path d="M49.9935 20.8359C39.4736 20.8359 31.0498 25.6271 24.9175 31.3298C18.8243 36.9803 14.7492 43.7506 12.8222 48.3986C12.3926 49.4271 12.3926 50.5729 12.8222 51.6014C14.7492 56.2495 18.8243 63.0197 24.9175 68.6703C31.0498 74.3729 39.4736 79.1641 49.9935 79.1641C60.5134 79.1641 68.9372 74.3729 75.0694 68.6703C81.1627 63.0067 85.2378 56.2495 87.1778 51.6014C87.6074 50.5729 87.6074 49.4271 87.1778 48.3986C85.2378 43.7506 81.1627 36.9803 75.0694 31.3298C68.9372 25.6271 60.5134 20.8359 49.9935 20.8359ZM31.2451 50C31.2451 45.0276 33.2204 40.2589 36.7364 36.7429C40.2524 33.2269 45.0211 31.2516 49.9935 31.2516C54.9659 31.2516 59.7346 33.2269 63.2506 36.7429C66.7666 40.2589 68.7419 45.0276 68.7419 50C68.7419 54.9724 66.7666 59.7411 63.2506 63.2571C59.7346 66.7731 54.9659 68.7484 49.9935 68.7484C45.0211 68.7484 40.2524 66.7731 36.7364 63.2571C33.2204 59.7411 31.2451 54.9724 31.2451 50ZM49.9935 41.6674C49.9935 46.2634 46.2568 50 41.6609 50C40.7365 50 39.8511 49.8438 39.0179 49.5704C38.3018 49.336 37.4685 49.7787 37.4946 50.5338C37.5336 51.4322 37.6638 52.3305 37.9112 53.2289C39.6949 59.895 46.5563 63.853 53.2224 62.0693C59.8885 60.2856 63.8465 53.4242 62.0628 46.7581C60.6176 41.3549 55.8393 37.7224 50.5273 37.5011C49.7722 37.4751 49.3295 38.2953 49.5638 39.0244C49.8373 39.8577 49.9935 40.743 49.9935 41.6674Z" fill="none"/>
</svg>
